<?xml version="1.0" encoding="UTF-8" standalone="no"?>
<svg
   xmlns:dc="http://purl.org/dc/elements/1.1/"
   xmlns:cc="http://creativecommons.org/ns#"
   xmlns:rdf="http://www.w3.org/1999/02/22-rdf-syntax-ns#"
   xmlns:svg="http://www.w3.org/2000/svg"
   xmlns="http://www.w3.org/2000/svg"
   width="1024pt"
   height="1024pt"
   viewBox="0 0 1024 1024"
   version="1.1"
   id="svg5">
  <metadata
     id="metadata11">
    <rdf:RDF>
      <cc:Work
         rdf:about="">
        <dc:format>image/svg+xml</dc:format>
        <dc:type
           rdf:resource="http://purl.org/dc/dcmitype/StillImage" />
        <dc:title></dc:title>
      </cc:Work>
    </rdf:RDF>
  </metadata>
  <defs
     id="defs9" />
  <path
     id="path1482"
     d=""
     style="fill:#000000;stroke-width:10.62810993" />
  <path
     id="path1480"
     d=""
     style="fill:#000000;stroke-width:10.62810993" />
  <path
     id="path1478"
     d=""
     style="fill:#000000;stroke-width:10.62810993" />
  <path
     id="path1476"
     d=""
     style="fill:#000000;stroke-width:10.62810993" />
  <path
     id="path1660"
     d="M 504.75385,934.63962 404.37638,881.34621 400.34683,714.06116 396.31727,546.77613 266.71575,314.71655 C 195.4349,187.08377 140.58336,73.616533 144.82341,62.567129 156.36785,32.482795 867.60052,32.7982 879.14889,62.892775 883.45768,74.121268 833.24566,182.20629 767.56664,303.08171 l -119.41641,219.77352 -7.16982,228.27246 c -4.18995,133.40002 -13.1295,230.04564 -21.50944,232.53891 -7.8868,2.34659 -59.50951,-19.71559 -114.71712,-49.02698 z M 583.62187,701.12784 V 515.43224 L 691.16915,315.8611 C 750.32017,206.097 798.71646,112.58782 798.71646,108.06294 c 0,-4.5249 -129.05677,-8.227083 -286.79279,-8.227083 -157.73603,0 -286.79278,3.193513 -286.79278,7.096653 0,3.90315 51.61892,99.0825 114.70874,211.50968 l 114.70874,204.41304 0.0472,157.73603 0.0473,157.73605 53.73489,29.76218 c 29.55379,16.3692 58.57412,27.28085 64.48923,24.24809 5.91509,-3.03276 10.75473,-89.07714 10.75473,-191.20974 z"
     style="fill:#000000;stroke-width:14.33963966" />
</svg>
