<?xml version="1.0" encoding="UTF-8" standalone="no"?>
<svg
   xmlns:dc="http://purl.org/dc/elements/1.1/"
   xmlns:cc="http://creativecommons.org/ns#"
   xmlns:rdf="http://www.w3.org/1999/02/22-rdf-syntax-ns#"
   xmlns:svg="http://www.w3.org/2000/svg"
   xmlns="http://www.w3.org/2000/svg"
   width="1024pt"
   height="1024pt"
   viewBox="0 0 1024 1024"
   version="1.1"
   id="svg5">
  <metadata
     id="metadata11">
    <rdf:RDF>
      <cc:Work
         rdf:about="">
        <dc:format>image/svg+xml</dc:format>
        <dc:type
           rdf:resource="http://purl.org/dc/dcmitype/StillImage" />
        <dc:title></dc:title>
      </cc:Work>
    </rdf:RDF>
  </metadata>
  <defs
     id="defs9" />
  <path
     id="path1492"
     d="M 417.95891,965.79286 C 400.78176,948.61571 407.58518,778.04835 428.09649,711.63531 439.02048,676.26482 505.77797,520.56132 576.4465,365.62755 681.09257,136.20134 712.56973,79.981546 746.08075,62.652342 798.46454,35.563621 852.08522,48.688684 890.9652,98.116584 c 29.47511,37.471526 30.54896,65.303276 5.57301,144.438926 -7.46503,23.65274 -4.48207,32.81917 10.68005,32.81917 27.54958,0 84.46846,61.08575 84.46846,90.65215 0,32.40652 -109.95093,268.11843 -131.19053,281.24525 -9.60957,5.93902 -27.37878,0.89136 -39.48718,-11.21702 C 801.37955,616.4256 804.85204,601.06504 853.05204,494.31274 890.26279,411.89923 902.41165,369.88699 892.03377,359.50911 861.35582,328.83118 836.35868,365.3623 743.7196,576.25713 661.08285,764.38145 637.59037,803.87234 560.76341,883.80671 478.92798,968.95205 442.20266,990.03664 417.95891,965.79286 Z M 43.731363,822.54667 C 33.829169,810.6152 29.537454,790.92363 34.194509,778.78781 40.96016,761.15652 71.556488,756.72262 186.45618,756.72262 h 143.79457 l -6.42254,43.75886 -6.42241,43.75886 H 189.57072 c -95.350256,0 -132.4103,-5.51263 -145.839357,-21.69367 z m 0,-189.62189 c -9.902194,-11.93153 -14.193909,-31.62304 -9.536854,-43.7589 6.90605,-17.99691 40.684074,-22.06521 183.201751,-22.06521 h 174.7346 l -15.25444,43.7589 -15.25447,43.7589 H 211.67873 c -114.91763,0 -154.148853,-5.06747 -167.947367,-21.69369 z m 0,-189.6219 C 33.829169,431.37135 29.537454,411.67984 34.194509,399.54399 41.233822,381.19976 79.698682,377.47878 262.28847,377.47878 h 219.62689 l -22.6286,43.7589 -22.62861,43.7589 H 249.19689 c -148.12431,0 -191.239365,-4.55223 -205.465527,-21.6937 z m 0,-189.62189 c -9.902194,-11.93154 -14.193909,-31.62304 -9.536854,-43.7589 7.125501,-18.56881 50.202538,-22.0652 271.852821,-22.0652 h 263.38583 l -22.6286,43.75889 -22.62861,43.7589 h -231.2202 c -186.8546,0 -234.674744,-4.16251 -249.224387,-21.69369 z"
     style="fill:#000000;stroke-width:14.5862999" />
  <path
     id="path1482"
     d=""
     style="fill:#000000;stroke-width:10.62810993" />
  <path
     id="path1480"
     d=""
     style="fill:#000000;stroke-width:10.62810993" />
  <path
     id="path1478"
     d=""
     style="fill:#000000;stroke-width:10.62810993" />
  <path
     id="path1476"
     d=""
     style="fill:#000000;stroke-width:10.62810993" />
</svg>
