<?xml version="1.0" encoding="UTF-8" standalone="no"?>
<svg
   xmlns:dc="http://purl.org/dc/elements/1.1/"
   xmlns:cc="http://creativecommons.org/ns#"
   xmlns:rdf="http://www.w3.org/1999/02/22-rdf-syntax-ns#"
   xmlns:svg="http://www.w3.org/2000/svg"
   xmlns="http://www.w3.org/2000/svg"
   width="1024pt"
   height="1024pt"
   viewBox="0 0 1024 1024"
   version="1.1"
   id="svg5">
  <metadata
     id="metadata11">
    <rdf:RDF>
      <cc:Work
         rdf:about="">
        <dc:format>image/svg+xml</dc:format>
        <dc:type
           rdf:resource="http://purl.org/dc/dcmitype/StillImage" />
        <dc:title></dc:title>
      </cc:Work>
    </rdf:RDF>
  </metadata>
  <defs
     id="defs9" />
  <path
     id="path1482"
     d=""
     style="fill:#000000;stroke-width:10.62810993" />
  <path
     id="path1480"
     d=""
     style="fill:#000000;stroke-width:10.62810993" />
  <path
     id="path1478"
     d=""
     style="fill:#000000;stroke-width:10.62810993" />
  <path
     id="path1476"
     d=""
     style="fill:#000000;stroke-width:10.62810993" />
  <path
     id="path1622"
     d="M 40.282761,979.24978 C 36.249875,968.74047 34.749294,813.79192 36.947966,634.91971 L 40.945598,309.69749 H 410.91418 780.88272 v 340.37107 340.37105 l -366.63379,3.95901 C 125.48395,997.51678 46.057724,994.29933 40.282761,979.24978 Z M 729.08713,716.66288 V 509.48051 H 410.91418 92.741239 V 716.66288 923.84527 H 410.91418 729.08713 Z m -7.39938,-310.77357 v -36.99686 l -307.42271,-4.00098 c -263.9261,-3.43491 -308.64432,-0.81763 -316.056567,18.49842 -4.748604,12.37468 -4.748604,32.62416 0,44.99884 7.412247,19.31602 52.130467,21.93333 316.056567,18.49842 l 307.42271,-4.00098 z m 143.13962,278.38342 c 3.1604,-22.29845 16.43781,-35.85023 38.14497,-38.93314 32.71059,-4.64563 33.29718,-8.36064 33.29718,-210.88205 V 228.30442 H 587.82294 239.37634 l 4.37585,-99.89151 4.37583,-99.891505 H 618.09657 988.06511 V 368.89245 709.26352 l -64.04277,4.60669 c -59.51535,4.28101 -63.70006,2.18864 -59.19497,-29.59748 z m 71.44215,-559.55951 c 0,-28.679718 -9.86584,-29.597476 -318.17295,-29.597476 -308.30712,0 -318.17296,0.917758 -318.17296,29.597476 0,28.67973 9.86584,29.59749 318.17296,29.59749 308.30711,0 318.17295,-0.91782 318.17295,-29.59749 z"
     style="fill:#000000;stroke-width:14.79874134" />
</svg>
