<?xml version="1.0" encoding="UTF-8" standalone="no"?>
<svg
   xmlns:dc="http://purl.org/dc/elements/1.1/"
   xmlns:cc="http://creativecommons.org/ns#"
   xmlns:rdf="http://www.w3.org/1999/02/22-rdf-syntax-ns#"
   xmlns:svg="http://www.w3.org/2000/svg"
   xmlns="http://www.w3.org/2000/svg"
   width="1024pt"
   height="1024pt"
   viewBox="0 0 1024 1024"
   version="1.1"
   id="svg5">
  <metadata
     id="metadata11">
    <rdf:RDF>
      <cc:Work
         rdf:about="">
        <dc:format>image/svg+xml</dc:format>
        <dc:type
           rdf:resource="http://purl.org/dc/dcmitype/StillImage" />
        <dc:title></dc:title>
      </cc:Work>
    </rdf:RDF>
  </metadata>
  <defs
     id="defs9" />
  <path
     id="path1482"
     d=""
     style="fill:#000000;stroke-width:10.62810993" />
  <path
     id="path1480"
     d=""
     style="fill:#000000;stroke-width:10.62810993" />
  <path
     id="path1478"
     d=""
     style="fill:#000000;stroke-width:10.62810993" />
  <path
     id="path1476"
     d=""
     style="fill:#000000;stroke-width:10.62810993" />
  <path
     id="path1524"
     d="m 35.375891,945.29459 c 0,-9.33699 168.503469,-14.44315 476.624139,-14.44315 308.12058,0 476.62405,5.10616 476.62405,14.44315 0,9.33699 -168.50347,14.44315 -476.62405,14.44315 -308.12067,0 -476.624139,-5.10616 -476.624139,-14.44315 z m 0,-115.54523 c 0,-9.33699 168.503469,-14.44315 476.624139,-14.44315 308.12058,0 476.62405,5.10616 476.62405,14.44315 0,9.33699 -168.50347,14.44315 -476.62405,14.44315 -308.12067,0 -476.624139,-5.10616 -476.624139,-14.44315 z m 0,-101.10207 c 0,-9.337 168.503469,-14.44315 476.624139,-14.44315 308.12058,0 476.62405,5.10615 476.62405,14.44315 0,9.33699 -168.50347,14.44316 -476.62405,14.44316 -308.12067,0 -476.624139,-5.10617 -476.624139,-14.44316 z m 0,-115.54523 c 0,-9.33699 168.503469,-14.44315 476.624139,-14.44315 308.12058,0 476.62405,5.10616 476.62405,14.44315 0,9.33699 -168.50347,14.44315 -476.62405,14.44315 -308.12067,0 -476.624139,-5.10616 -476.624139,-14.44315 z m 0,-115.54523 c 0,-9.33699 168.503469,-14.44316 476.624139,-14.44316 308.12058,0 476.62405,5.10617 476.62405,14.44316 0,9.337 -168.50347,14.44315 -476.62405,14.44315 -308.12067,0 -476.624139,-5.10615 -476.624139,-14.44315 z m 0,-259.97676 V 64.262228 H 512.00003 988.62408 V 237.58007 410.89792 H 512.00003 35.375891 Z"
     style="fill:#000000;stroke-width:14.44315338" />
</svg>
