<?xml version="1.0" encoding="UTF-8" standalone="no"?>
<svg
   xmlns:dc="http://purl.org/dc/elements/1.1/"
   xmlns:cc="http://creativecommons.org/ns#"
   xmlns:rdf="http://www.w3.org/1999/02/22-rdf-syntax-ns#"
   xmlns:svg="http://www.w3.org/2000/svg"
   xmlns="http://www.w3.org/2000/svg"
   width="1024pt"
   height="1024pt"
   viewBox="0 0 1024 1024"
   version="1.1"
   id="svg5">
  <metadata
     id="metadata11">
    <rdf:RDF>
      <cc:Work
         rdf:about="">
        <dc:format>image/svg+xml</dc:format>
        <dc:type
           rdf:resource="http://purl.org/dc/dcmitype/StillImage" />
        <dc:title></dc:title>
      </cc:Work>
    </rdf:RDF>
  </metadata>
  <defs
     id="defs9" />
  <path
     id="path1482"
     d=""
     style="fill:#000000;stroke-width:10.62810993" />
  <path
     id="path1480"
     d=""
     style="fill:#000000;stroke-width:10.62810993" />
  <path
     id="path1478"
     d=""
     style="fill:#000000;stroke-width:10.62810993" />
  <path
     id="path1476"
     d=""
     style="fill:#000000;stroke-width:10.62810993" />
  <path
     id="path1756"
     d="M 308.97218,905.88885 136.08057,820.13799 131.68789,715.16731 C 127.45109,613.9213 125.45063,608.99146 75.310165,576.23182 11.481368,534.52865 9.7282659,501.05939 68.427385,444.8221 c 24.806208,-23.76583 45.102125,-49.29553 45.102125,-56.7327 0,-7.43715 -21.16711,-42.99676 -47.038038,-79.02134 C 39.823181,271.9331 23.268155,233.62787 28.262457,220.61309 35.419388,201.96251 349.22129,31.385748 376.37498,31.385748 c 4.2721,0 7.76744,9.039216 7.76744,20.087116 0,11.047913 -67.65323,55.466556 -150.34049,98.708106 -82.68723,43.24156 -150.340416,87.39914 -150.340416,98.12799 0,39.53717 146.921726,153.32303 282.076216,218.45838 l 139.12195,67.0474 165.41878,-81.61828 C 831.8507,372.37742 950.34548,279.20925 937.83272,241.67097 934.53797,231.78672 864.7443,188.88563 782.73569,146.33524 646.55048,75.675157 590.99186,30.458575 642.22692,31.981641 685.594,33.270816 993.15762,205.01474 997.88074,230.5792 c 2.67266,14.46605 -15.93194,51.52543 -41.34359,82.35417 -25.41167,30.82878 -46.20303,63.3931 -46.20303,72.36522 0,8.97209 20.29596,35.75768 45.10214,59.52351 58.80584,56.33958 56.94044,89.77629 -7.33091,131.40972 -49.67587,32.17877 -52.44288,38.44594 -52.61918,119.181 -0.10218,46.8689 -4.47239,96.3861 -9.71121,110.03822 -10.18,26.52865 -339.427,188.7643 -379.8116,187.15124 -13.2548,-0.52942 -101.90082,-39.55047 -196.99118,-86.71343 z M 489.38076,783.08819 c 0,-82.68726 -5.4996,-150.34048 -12.22132,-150.34048 -6.72172,0 -31.66607,20.29596 -55.4319,45.10214 -52.89574,55.21125 -80.88718,56.23511 -166.45593,6.08846 l -66.57182,-39.01369 v 73.21332 73.21329 l 139.06495,70.15733 c 76.48572,38.58653 144.13893,70.55396 150.34048,71.03874 6.20155,0.48476 11.27554,-66.77184 11.27554,-149.45911 z m 210.74983,75.03318 c 82.53703,-41.41903 150.06733,-84.54795 150.06733,-95.84206 0,-11.29412 -4.24734,-41.7715 -9.43856,-67.72752 l -9.43855,-47.19277 -67.62527,37.79649 c -86.2928,48.22997 -99.81414,47.5511 -170.6715,-8.56895 L 534.4829,630.22109 V 781.8249 c 0,83.38208 3.50558,151.60379 7.79019,151.60379 4.28458,0 75.32046,-33.8883 157.8575,-75.30732 z M 409.73627,629.79853 c 27.26702,-26.42824 49.57639,-52.06804 49.57639,-56.97734 0,-4.9093 -68.34676,-42.48277 -151.88167,-83.4966 L 155.54933,414.754 112.00535,466.78501 C 80.093954,504.91596 73.477092,521.84983 87.236903,530.17225 223.99032,612.88607 334.33099,675.2916 345.84158,676.43168 c 7.87506,0.77997 36.62769,-20.20492 63.89469,-46.63315 z m 406.63504,-33.93764 c 68.217,-39.04072 124.0309,-78.47746 124.0309,-87.63723 0,-9.15977 -17.808,-35.24166 -39.57331,-57.95977 L 861.2556,408.95827 712.90329,483.40494 C 631.30953,524.35061 564.551,563.85442 564.551,571.19116 c 0,18.34345 104.55608,108.71648 117.41396,101.48674 5.70651,-3.20864 66.18936,-37.7763 134.40635,-76.81701 z M 501.56383,335.82524 c -4.25988,-51.47025 -8.91916,-56.78774 -53.52671,-61.08872 -36.68338,-3.53694 -48.86065,-11.96735 -48.86065,-33.82661 0,-23.25223 10.59652,-29.11557 52.61917,-29.11557 50.11349,0 52.61916,-2.50568 52.61916,-52.61917 0,-42.59647 5.72726,-52.61917 30.0681,-52.61917 24.34085,0 30.0681,10.0227 30.0681,52.61917 0,50.11349 2.50568,52.61917 52.61917,52.61917 42.59647,0 52.61916,5.72725 52.61916,30.06809 0,24.34086 -10.02269,30.0681 -52.61916,30.0681 -51.36634,0 -52.61917,1.43185 -52.61917,60.13621 0,49.48963 -5.1626,60.13619 -29.16056,60.13619 -22.84444,0 -30.17122,-12.21132 -33.82661,-56.37769 z"
     style="fill:#000000;stroke-width:15.03404903" />
</svg>
