<?xml version="1.0" encoding="UTF-8" standalone="no"?>
<svg
   xmlns:dc="http://purl.org/dc/elements/1.1/"
   xmlns:cc="http://creativecommons.org/ns#"
   xmlns:rdf="http://www.w3.org/1999/02/22-rdf-syntax-ns#"
   xmlns:svg="http://www.w3.org/2000/svg"
   xmlns="http://www.w3.org/2000/svg"
   width="1024pt"
   height="1024pt"
   viewBox="0 0 1024 1024"
   version="1.1"
   id="svg5">
  <metadata
     id="metadata11">
    <rdf:RDF>
      <cc:Work
         rdf:about="">
        <dc:format>image/svg+xml</dc:format>
        <dc:type
           rdf:resource="http://purl.org/dc/dcmitype/StillImage" />
        <dc:title></dc:title>
      </cc:Work>
    </rdf:RDF>
  </metadata>
  <defs
     id="defs9" />
  <path
     id="path1482"
     d=""
     style="fill:#000000;stroke-width:10.62810993" />
  <path
     id="path1480"
     d=""
     style="fill:#000000;stroke-width:10.62810993" />
  <path
     id="path1478"
     d=""
     style="fill:#000000;stroke-width:10.62810993" />
  <path
     id="path1476"
     d=""
     style="fill:#000000;stroke-width:10.62810993" />
  <path
     id="path1588"
     d="m 68.703105,977.46164 c 0,-12.19067 -9.974167,-22.16484 -22.164838,-22.16484 -15.480209,0 -22.164838,-15.59749 -22.164838,-51.71796 0,-36.12047 6.684629,-51.71796 22.164838,-51.71796 19.059612,0 22.164838,-47.61336 22.164838,-339.8609 0,-292.24754 -3.105226,-339.86088 -22.164838,-339.86088 -15.480209,0 -22.164838,-15.59749 -22.164838,-51.71796 0,-36.12049 6.684629,-51.717957 22.164838,-51.717957 12.190671,0 22.164838,-9.97419 22.164838,-22.16486 0,-15.480188 15.597489,-22.164838 51.717965,-22.164838 35.70339,0 51.71796,6.741082 51.71796,21.769818 0,18.006611 37.6763,22.476701 217.95428,25.858981 l 217.95428,4.089163 4.78167,41.734513 c 3.67159,32.04558 -2.33175,43.59472 -25.85898,49.74724 -28.39587,7.42568 -30.64065,18.71201 -30.64065,154.0549 v 146.0422 h 146.04225 c 135.34289,0 146.62915,-2.24477 154.0549,-30.64067 6.15245,-23.52723 17.70155,-29.53055 49.74726,-25.85898 l 41.73445,4.78169 4.08912,217.95426 c 3.38235,180.27798 7.85246,217.95428 25.85903,217.95428 15.02884,0 21.7699,16.01457 21.7699,51.71796 0,36.12047 -6.68474,51.71796 -22.16503,51.71796 -12.1905,0 -22.16482,9.97417 -22.16482,22.16484 0,15.48021 -15.59736,22.16484 -51.71783,22.16484 -36.12047,0 -51.71805,-6.68463 -51.71805,-22.16484 0,-19.05963 -47.61325,-22.16484 -339.86088,-22.16484 -292.24754,0 -339.8609,3.10521 -339.8609,22.16484 0,15.48021 -15.59749,22.16484 -51.71796,22.16484 -36.120476,0 -51.717965,-6.68463 -51.717965,-22.16484 z M 467.67026,704.09528 V 556.32965 H 319.90466 172.13903 v 147.76563 147.7656 h 147.76563 147.7656 z m 384.19055,0 V 556.32965 H 704.0953 556.32963 v 147.76563 147.7656 H 704.0953 851.86081 Z M 467.67026,319.9047 V 172.1391 H 319.90466 172.13903 v 147.7656 147.7656 h 147.76563 147.7656 z m 339.86092,-51.71796 c 0,-49.25519 -2.46288,-51.71796 -51.71805,-51.71796 -47.61325,0 -51.71783,-3.51822 -51.71783,-44.32968 0,-40.81147 4.10458,-44.32969 51.71783,-44.32969 49.25517,0 51.71805,-2.46277 51.71805,-51.717963 0,-47.365395 3.65202,-51.717962 43.39338,-51.717962 38.15598,0 43.95239,5.796481 48.02384,48.023819 4.07145,42.227356 10.42688,48.582696 52.6543,52.654186 42.22721,4.07147 48.02384,9.86795 48.02384,48.02382 0,39.74149 -4.35261,43.39347 -51.71805,43.39347 -49.25517,0 -51.71805,2.46277 -51.71805,51.71796 0,47.61336 -3.51818,51.71796 -44.32963,51.71796 -40.81145,0 -44.32963,-4.1046 -44.32963,-51.71796 z"
     style="fill:#000000;stroke-width:14.77656078" />
</svg>
